<svg class="icon-set">
  <symbol viewBox="0 0 32 32" id="icon-arrow-left">
    <title>arrow-left</title>
    <path d="M12.586 4.586l-10 10c-0.781 0.781-0.781 2.047 0 2.828l10 10c0.781 0.781 2.047 0.781 2.828 0s0.781-2.047 0-2.828l-6.586-6.586h19.172c1.105 0 2-0.895 2-2s-0.895-2-2-2h-19.172l6.586-6.586c0.39-0.391 0.586-0.902 0.586-1.414s-0.195-1.024-0.586-1.414c-0.781-0.781-2.047-0.781-2.828 0z"
    />
  </symbol>
  <symbol viewBox="0 0 512 512" id="icon-book">
    <title>book</title>
    <path d="M448 64v416h-336c-26.511 0-48-21.49-48-48s21.489-48 48-48h304v-384h-320c-35.199 0-64 28.8-64 64v384c0 35.2 28.801 64 64 64h384v-448h-32zM128 416h288v32h-288z" />
  </symbol>
  <symbol viewBox="0 0 32 32" id="icon-building">
    <title>building</title>
    <path d="M0 32h16v-32h-16v32zM10 4h4v4h-4v-4zM10 12h4v4h-4v-4zM10 20h4v4h-4v-4zM2 4h4v4h-4v-4zM2 12h4v4h-4v-4zM2 20h4v4h-4v-4zM18 10h14v2h-14zM18 32h4v-8h6v8h4v-18h-14z" />
  </symbol>
  <symbol viewBox="0 0 32 32" id="icon-download">
    <title>download</title>
    <path d="M23 14l-8 8-8-8h5v-12h6v12zM15 22h-15v8h30v-8h-15zM28 26h-4v-2h4v2z" />
  </symbol>
  <symbol viewBox="0 0 32 32" id="icon-earth">
    <title>earth</title>
    <path d="M27.314 4.686c3.022 3.022 4.686 7.040 4.686 11.314s-1.664 8.292-4.686 11.314c-3.022 3.022-7.040 4.686-11.314 4.686s-8.292-1.664-11.314-4.686c-3.022-3.022-4.686-7.040-4.686-11.314s1.664-8.292 4.686-11.314c3.022-3.022 7.040-4.686 11.314-4.686s8.292 1.664 11.314 4.686zM25.899 25.9c1.971-1.971 3.281-4.425 3.821-7.096-0.421 0.62-0.824 0.85-1.073-0.538-0.257-2.262-2.335-0.817-3.641-1.621-1.375 0.927-4.466-1.802-3.941 1.276 0.81 1.388 4.375-1.858 2.598 1.079-1.134 2.050-4.145 6.592-3.753 8.946 0.049 3.43-3.504 0.715-4.729-0.422-0.824-2.279-0.281-6.262-2.434-7.378-2.338-0.102-4.344-0.314-5.25-2.927-0.545-1.87 0.58-4.653 2.584-5.083 2.933-1.843 3.98 2.158 6.731 2.232 0.854-0.894 3.182-1.178 3.375-2.18-1.805-0.318 2.29-1.517-0.173-2.199-1.358 0.16-2.234 1.409-1.512 2.467-2.632 0.614-2.717-3.809-5.247-2.414-0.064 2.206-4.132 0.715-1.407 0.268 0.936-0.409-1.527-1.594-0.196-1.379 0.654-0.036 2.854-0.807 2.259-1.325 1.225-0.761 2.255 1.822 3.454-0.059 0.866-1.446-0.363-1.713-1.448-0.98-0.612-0.685 1.080-2.165 2.573-2.804 0.497-0.213 0.973-0.329 1.336-0.296 0.752 0.868 2.142 1.019 2.215-0.104-1.862-0.892-3.915-1.363-6.040-1.363-3.051 0-5.952 0.969-8.353 2.762 0.645 0.296 1.012 0.664 0.39 1.134-0.483 1.439-2.443 3.371-4.163 3.098-0.893 1.54-1.482 3.238-1.733 5.017 1.441 0.477 1.773 1.42 1.464 1.736-0.734 0.64-1.185 1.548-1.418 2.541 0.469 2.87 1.818 5.515 3.915 7.612 2.644 2.644 6.16 4.1 9.899 4.1s7.255-1.456 9.899-4.1z"
    />
  </symbol>
  <symbol viewBox="0 0 32 32" id="icon-enter">
    <title>enter</title>
    <path d="M12 16h-10v-4h10v-4l6 6-6 6zM32 0v26l-12 6v-6h-12v-8h2v6h10v-18l8-4h-18v8h-2v-10z" />
  </symbol>
  <symbol viewBox="0 0 512 512" id="icon-envelope">
    <title>envelope</title>
    <path d="M464 64h-416c-26.4 0-48 21.6-48 48v320c0 26.4 21.6 48 48 48h416c26.4 0 48-21.6 48-48v-320c0-26.4-21.6-48-48-48zM199.37 275.186l-135.37 105.446v-250.821l135.37 145.375zM88.19 128h335.62l-167.81 126-167.81-126zM204.644 280.849l51.356 55.151 51.355-55.151 105.277 135.151h-313.264l105.276-135.151zM312.63 275.186l135.37-145.375v250.821l-135.37-105.446z"
    />
  </symbol>
  <symbol viewBox="0 0 32 32" id="icon-exit">
    <title>exit</title>
    <path d="M24 20v-4h-10v-4h10v-4l6 6zM22 18v8h-10v6l-12-6v-26h22v10h-2v-8h-16l8 4v18h8v-6z" />
  </symbol>
  <symbol viewBox="0 0 32 32" id="icon-file">
    <title>file</title>
    <path d="M28.232 6.232l-4.465-4.464c-0.972-0.972-2.893-1.768-4.268-1.768h-15c-1.375 0-2.5 1.125-2.5 2.5v27c0 1.375 1.125 2.5 2.5 2.5h23c1.375 0 2.5-1.125 2.5-2.5v-19c0-1.375-0.796-3.296-1.768-4.268zM26.818 7.646c0.098 0.098 0.195 0.218 0.29 0.354h-5.108v-5.108c0.136 0.095 0.256 0.192 0.354 0.29l4.465 4.464zM28 29.5c0 0.271-0.229 0.5-0.5 0.5h-23c-0.271 0-0.5-0.229-0.5-0.5v-27c0-0.271 0.229-0.5 0.5-0.5h15c0.151 0 0.32 0.019 0.5 0.053v7.947h7.947c0.034 0.18 0.053 0.349 0.053 0.5v19z"
    />
  </symbol>
  <symbol viewBox="0 0 32 32" id="icon-file_dup">
    <title>file_dup</title>
    <path d="M26 8h-6v-2l-6-6h-14v24h12v8h20v-18l-6-6zM26 10.828l3.172 3.172h-3.172v-3.172zM14 2.828l3.172 3.172h-3.172v-3.172zM2 2h10v6h6v14h-16v-20zM30 30h-16v-6h6v-14h4v6h6v14z" />
  </symbol>
  <symbol viewBox="0 0 512 512" id="icon-gears">
    <title>gears</title>
    <path d="M181.861 361.026l20.649-28.908-22.627-22.628-28.909 20.648c-5.361-2.997-11.102-5.387-17.133-7.096l-5.841-35.042h-32l-5.84 35.043c-6.031 1.709-11.772 4.099-17.133 7.096l-28.909-20.649-22.628 22.628 20.649 28.908c-2.997 5.36-5.387 11.103-7.096 17.133l-35.043 5.841v32l35.043 5.841c1.709 6.030 4.099 11.772 7.096 17.133l-20.649 28.908 22.627 22.628 28.909-20.648c5.361 2.997 11.102 5.387 17.133 7.096l5.841 35.042h32l5.84-35.043c6.031-1.709 11.772-4.099 17.133-7.096l28.909 20.648 22.627-22.628-20.649-28.908c2.997-5.36 5.387-11.103 7.096-17.133l35.044-5.84v-32l-35.043-5.841c-1.709-6.030-4.099-11.772-7.096-17.133zM112 432c-17.674 0-32-14.327-32-32s14.326-32 32-32 32 14.327 32 32-14.326 32-32 32zM512 192v-32l-33.691-6.125c-0.621-4.023-1.416-7.989-2.362-11.895l28.779-18.55-12.246-29.564-33.472 7.234c-2.107-3.455-4.363-6.81-6.746-10.065l19.503-28.171-22.628-22.627-28.171 19.503c-3.256-2.383-6.61-4.638-10.065-6.747l7.234-33.472-29.564-12.247-18.55 28.779c-3.906-0.946-7.872-1.741-11.895-2.362l-6.126-33.691h-32l-6.126 33.691c-4.023 0.621-7.988 1.416-11.895 2.362l-18.549-28.779-29.564 12.246 7.234 33.472c-3.455 2.108-6.81 4.364-10.065 6.747l-28.171-19.503-22.627 22.627 19.503 28.171c-2.383 3.255-4.639 6.61-6.747 10.065l-33.472-7.234-12.246 29.564 28.779 18.55c-0.946 3.906-1.741 7.871-2.362 11.895l-33.692 6.126v32l33.691 6.125c0.621 4.023 1.416 7.989 2.362 11.895l-28.779 18.55 12.246 29.564 33.472-7.234c2.108 3.455 4.364 6.809 6.747 10.065l-19.503 28.171 22.627 22.628 28.171-19.503c3.255 2.383 6.61 4.638 10.065 6.746l-7.234 33.472 29.564 12.246 18.551-28.779c3.905 0.946 7.871 1.741 11.894 2.362l6.126 33.692h32l6.126-33.691c4.022-0.621 7.988-1.416 11.895-2.362l18.55 28.779 29.564-12.246-7.234-33.472c3.455-2.108 6.81-4.363 10.065-6.746l28.171 19.503 22.628-22.628-19.503-28.171c2.383-3.256 4.638-6.61 6.746-10.065l33.472 7.234 12.246-29.565-28.779-18.55c0.946-3.906 1.741-7.871 2.362-11.895l33.691-6.125zM336 245.6c-38.439 0-69.6-31.161-69.6-69.6s31.16-69.6 69.6-69.6 69.6 31.161 69.6 69.6c0 38.439-31.16 69.6-69.6 69.6z"
    />
  </symbol>
  <symbol viewBox="0 0 32 32" id="icon-home">
    <title>home</title>
    <path d="M32 18.451l-16-12.42-16 12.42v-5.064l16-12.42 16 12.42zM28 18v12h-8v-8h-8v8h-8v-12l12-9z" />
  </symbol>
  <symbol viewBox="0 0 32 32" id="icon-lens">
    <title>lens</title>
    <path d="M31.008 27.231l-7.58-6.447c-0.784-0.705-1.622-1.029-2.299-0.998 1.789-2.096 2.87-4.815 2.87-7.787 0-6.627-5.373-12-12-12s-12 5.373-12 12c0 6.627 5.373 12 12 12 2.972 0 5.691-1.081 7.787-2.87-0.031 0.677 0.293 1.515 0.998 2.299l6.447 7.58c1.104 1.226 2.907 1.33 4.007 0.23s0.997-2.903-0.23-4.007zM12 20c-4.418 0-8-3.582-8-8s3.582-8 8-8 8 3.582 8 8-3.582 8-8 8z"
    />
  </symbol>
  <symbol viewBox="0 0 32 32" id="icon-pencil">
    <title>pencil</title>
    <path d="M27 0c2.761 0 5 2.239 5 5 0 1.126-0.372 2.164-1 3l-2 2-7-7 2-2c0.836-0.628 1.874-1 3-1zM2 23l-2 9 9-2 18.5-18.5-7-7-18.5 18.5zM22.362 11.362l-14 14-1.724-1.724 14-14 1.724 1.724z" />
  </symbol>
  <symbol viewBox="0 0 32 32" id="icon-report">
    <title>report</title>
    <path d="M6 16h6v2h-6v-2zM6 20h6v2h-6v-2zM6 24h6v2h-6v-2zM28.232 6.232l-4.465-4.464c-0.972-0.972-2.893-1.768-4.268-1.768h-15c-1.375 0-2.5 1.125-2.5 2.5v27c0 1.375 1.125 2.5 2.5 2.5h23c1.375 0 2.5-1.125 2.5-2.5v-19c0-1.375-0.796-3.296-1.768-4.268zM26.818 7.646c0.098 0.098 0.195 0.218 0.29 0.354h-5.108v-5.108c0.136 0.095 0.256 0.192 0.354 0.29l4.465 4.464zM28 29.5c0 0.271-0.229 0.5-0.5 0.5h-23c-0.271 0-0.5-0.229-0.5-0.5v-27c0-0.271 0.229-0.5 0.5-0.5h15c0.151 0 0.32 0.019 0.5 0.053v7.947h7.947c0.034 0.18 0.053 0.349 0.053 0.5v19zM18 22h5.9c-0.463 2.282-2.481 4-4.9 4-2.761 0-5-2.239-5-5 0-2.419 1.718-4.436 4-4.9v5.9zM21 14c2.761 0 5 2.239 5 5 0 0.342-0.035 0.677-0.1 1h-5.9v-5.9c0.323-0.066 0.658-0.1 1-0.1z"
    />
  </symbol>
  <symbol viewBox="0 0 32 32" id="icon-target">
    <title>target</title>
    <path d="M32 14h-3.154c-0.864-5.57-5.276-9.982-10.846-10.846v-3.154h-4v3.154c-5.57 0.864-9.982 5.276-10.846 10.846h-3.154v4h3.154c0.864 5.57 5.276 9.982 10.846 10.846v3.154h4v-3.154c5.57-0.864 9.982-5.276 10.846-10.846h3.154v-4zM24.776 14h-3.118c-0.603-1.705-1.953-3.056-3.658-3.658v-3.118c3.36 0.765 6.010 3.416 6.776 6.776zM16 18c-1.105 0-2-0.895-2-2s0.895-2 2-2c1.105 0 2 0.895 2 2s-0.895 2-2 2zM14 7.224v3.118c-1.705 0.603-3.056 1.953-3.658 3.658h-3.118c0.765-3.36 3.416-6.010 6.776-6.776zM7.224 18h3.118c0.603 1.705 1.953 3.056 3.658 3.658v3.118c-3.36-0.765-6.010-3.416-6.776-6.776zM18 24.776v-3.118c1.705-0.603 3.056-1.953 3.658-3.658h3.118c-0.765 3.36-3.416 6.010-6.776 6.776z"
    />
  </symbol>
  <symbol viewBox="0 0 32 32" id="icon-upload">
    <title>upload</title>
    <path d="M15 22h-15v8h30v-8h-15zM28 26h-4v-2h4v2zM7 10l8-8 8 8h-5v10h-6v-10z" />
  </symbol>
  <symbol viewBox="0 0 512 512" id="icon-user">
    <title>user</title>
    <path d="M128 160c0-70.692 57.308-128 128-128s128 57.308 128 128c0 70.692-57.308 128-128 128s-128-57.308-128-128zM384 320h-256c-70.692 0-128 57.309-128 128v32h512v-32c0-70.691-57.308-128-128-128z" />
  </symbol>
  <symbol viewBox="0 0 32 32" id="icon-x">
    <title>x</title>
    <path d="M31.708 25.708c-0-0-0-0-0-0l-9.708-9.708 9.708-9.708c0-0 0-0 0-0 0.105-0.105 0.18-0.227 0.229-0.357 0.133-0.356 0.057-0.771-0.229-1.057l-4.586-4.586c-0.286-0.286-0.702-0.361-1.057-0.229-0.13 0.048-0.252 0.124-0.357 0.228 0 0-0 0-0 0l-9.708 9.708-9.708-9.708c-0-0-0-0-0-0-0.105-0.104-0.227-0.18-0.357-0.228-0.356-0.133-0.771-0.057-1.057 0.229l-4.586 4.586c-0.286 0.286-0.361 0.702-0.229 1.057 0.049 0.13 0.124 0.252 0.229 0.357 0 0 0 0 0 0l9.708 9.708-9.708 9.708c-0 0-0 0-0 0-0.104 0.105-0.18 0.227-0.229 0.357-0.133 0.355-0.057 0.771 0.229 1.057l4.586 4.586c0.286 0.286 0.702 0.361 1.057 0.229 0.13-0.049 0.252-0.124 0.357-0.229 0-0 0-0 0-0l9.708-9.708 9.708 9.708c0 0 0 0 0 0 0.105 0.105 0.227 0.18 0.357 0.229 0.356 0.133 0.771 0.057 1.057-0.229l4.586-4.586c0.286-0.286 0.362-0.702 0.229-1.057-0.049-0.13-0.124-0.252-0.229-0.357z"
    />
  </symbol>
</svg>