<svg class="icon-set"><symbol viewBox="0 0 32 32" id="icon-download"><title>download</title> <g> <line stroke-width="1" x1="" y1="" x2="" y2="" stroke="#449FDB" opacity=""/> </g> <path d="M23 14l-8 8-8-8h5v-12h6v12zM15 22h-15v8h30v-8h-15zM28 26h-4v-2h4v2z" fill="#000000"/> </symbol><symbol viewBox="0 0 32 32" id="icon-file"><title>file</title> <g> <line stroke-width="1" x1="" y1="" x2="" y2="" stroke="#449FDB" opacity=""/> </g> <path d="M28.232 6.232l-4.465-4.464c-0.972-0.972-2.893-1.768-4.268-1.768h-15c-1.375 0-2.5 1.125-2.5 2.5v27c0 1.375 1.125 2.5 2.5 2.5h23c1.375 0 2.5-1.125 2.5-2.5v-19c0-1.375-0.796-3.296-1.768-4.268zM26.818 7.646c0.098 0.098 0.195 0.218 0.29 0.354h-5.108v-5.108c0.136 0.095 0.256 0.192 0.354 0.29l4.465 4.464zM28 29.5c0 0.271-0.229 0.5-0.5 0.5h-23c-0.271 0-0.5-0.229-0.5-0.5v-27c0-0.271 0.229-0.5 0.5-0.5h15c0.151 0 0.32 0.019 0.5 0.053v7.947h7.947c0.034 0.18 0.053 0.349 0.053 0.5v19z" fill="#000000"/> </symbol><symbol viewBox="0 0 32 32" id="icon-lens"><title>lens</title> <g> <line stroke-width="1" x1="" y1="" x2="" y2="" stroke="#449FDB" opacity=""/> </g> <path d="M31.008 27.231l-7.58-6.447c-0.784-0.705-1.622-1.029-2.299-0.998 1.789-2.096 2.87-4.815 2.87-7.787 0-6.627-5.373-12-12-12s-12 5.373-12 12c0 6.627 5.373 12 12 12 2.972 0 5.691-1.081 7.787-2.87-0.031 0.677 0.293 1.515 0.998 2.299l6.447 7.58c1.104 1.226 2.907 1.33 4.007 0.23s0.997-2.903-0.23-4.007zM12 20c-4.418 0-8-3.582-8-8s3.582-8 8-8 8 3.582 8 8-3.582 8-8 8z" fill="#000000"/> </symbol><symbol viewBox="0 0 32 32" id="icon-pencil"><title>pencil</title> <g> <line stroke-width="1" x1="" y1="" x2="" y2="" stroke="#449FDB" opacity=""/> </g> <path d="M27 0c2.761 0 5 2.239 5 5 0 1.126-0.372 2.164-1 3l-2 2-7-7 2-2c0.836-0.628 1.874-1 3-1zM2 23l-2 9 9-2 18.5-18.5-7-7-18.5 18.5zM22.362 11.362l-14 14-1.724-1.724 14-14 1.724 1.724z" fill="#000000"/> </symbol><symbol viewBox="0 0 32 32" id="icon-report"><title>report</title> <g> <line stroke-width="1" x1="" y1="" x2="" y2="" stroke="#449FDB" opacity=""/> </g> <path d="M6 16h6v2h-6v-2zM6 20h6v2h-6v-2zM6 24h6v2h-6v-2zM28.232 6.232l-4.465-4.464c-0.972-0.972-2.893-1.768-4.268-1.768h-15c-1.375 0-2.5 1.125-2.5 2.5v27c0 1.375 1.125 2.5 2.5 2.5h23c1.375 0 2.5-1.125 2.5-2.5v-19c0-1.375-0.796-3.296-1.768-4.268zM26.818 7.646c0.098 0.098 0.195 0.218 0.29 0.354h-5.108v-5.108c0.136 0.095 0.256 0.192 0.354 0.29l4.465 4.464zM28 29.5c0 0.271-0.229 0.5-0.5 0.5h-23c-0.271 0-0.5-0.229-0.5-0.5v-27c0-0.271 0.229-0.5 0.5-0.5h15c0.151 0 0.32 0.019 0.5 0.053v7.947h7.947c0.034 0.18 0.053 0.349 0.053 0.5v19zM18 22h5.9c-0.463 2.282-2.481 4-4.9 4-2.761 0-5-2.239-5-5 0-2.419 1.718-4.436 4-4.9v5.9zM21 14c2.761 0 5 2.239 5 5 0 0.342-0.035 0.677-0.1 1h-5.9v-5.9c0.323-0.066 0.658-0.1 1-0.1z" fill="#000000"/> </symbol><symbol viewBox="0 0 32 32" id="icon-x"><title>x</title> <g> <line stroke-width="1" x1="" y1="" x2="" y2="" stroke="#449FDB" opacity=""/> </g> <path d="M31.708 25.708c-0-0-0-0-0-0l-9.708-9.708 9.708-9.708c0-0 0-0 0-0 0.105-0.105 0.18-0.227 0.229-0.357 0.133-0.356 0.057-0.771-0.229-1.057l-4.586-4.586c-0.286-0.286-0.702-0.361-1.057-0.229-0.13 0.048-0.252 0.124-0.357 0.228 0 0-0 0-0 0l-9.708 9.708-9.708-9.708c-0-0-0-0-0-0-0.105-0.104-0.227-0.18-0.357-0.228-0.356-0.133-0.771-0.057-1.057 0.229l-4.586 4.586c-0.286 0.286-0.361 0.702-0.229 1.057 0.049 0.13 0.124 0.252 0.229 0.357 0 0 0 0 0 0l9.708 9.708-9.708 9.708c-0 0-0 0-0 0-0.104 0.105-0.18 0.227-0.229 0.357-0.133 0.355-0.057 0.771 0.229 1.057l4.586 4.586c0.286 0.286 0.702 0.361 1.057 0.229 0.13-0.049 0.252-0.124 0.357-0.229 0-0 0-0 0-0l9.708-9.708 9.708 9.708c0 0 0 0 0 0 0.105 0.105 0.227 0.18 0.357 0.229 0.356 0.133 0.771 0.057 1.057-0.229l4.586-4.586c0.286-0.286 0.362-0.702 0.229-1.057-0.049-0.13-0.124-0.252-0.229-0.357z" fill="#000000"/> </symbol></svg>
