<?xml version="1.0" encoding="UTF-8" standalone="no"?>
<svg
   xmlns:dc="http://purl.org/dc/elements/1.1/"
   xmlns:cc="http://creativecommons.org/ns#"
   xmlns:rdf="http://www.w3.org/1999/02/22-rdf-syntax-ns#"
   xmlns:svg="http://www.w3.org/2000/svg"
   xmlns="http://www.w3.org/2000/svg"
   xmlns:sodipodi="http://sodipodi.sourceforge.net/DTD/sodipodi-0.dtd"
   xmlns:inkscape="http://www.inkscape.org/namespaces/inkscape"
   width="495.23438"
   height="357.57812"
   viewBox="0 0 396.1875 286.0625"
   version="1.1"
   id="svg2"
   inkscape:version="0.48.4 r9939"
   sodipodi:docname="SVGlogo.svg">
  <metadata
     id="metadata19">
    <rdf:RDF>
      <cc:Work
         rdf:about="">
        <dc:format>image/svg+xml</dc:format>
        <dc:type
           rdf:resource="http://purl.org/dc/dcmitype/StillImage" />
      </cc:Work>
    </rdf:RDF>
  </metadata>
  <defs
     id="defs17" />
  <sodipodi:namedview
     pagecolor="#ffffff"
     bordercolor="#666666"
     borderopacity="1"
     objecttolerance="10"
     gridtolerance="10"
     guidetolerance="10"
     inkscape:pageopacity="0"
     inkscape:pageshadow="2"
     inkscape:window-width="1432"
     inkscape:window-height="1004"
     id="namedview15"
     showgrid="false"
     fit-margin-top="0"
     fit-margin-left="0"
     fit-margin-right="0"
     fit-margin-bottom="0"
     inkscape:zoom="1"
     inkscape:cx="12.750842"
     inkscape:cy="88.36839"
     inkscape:window-x="486"
     inkscape:window-y="45"
     inkscape:window-maximized="0"
     inkscape:current-layer="svg2" />
  <g
     id="surface2"
     transform="matrix(1.728,0,0,1.728,-259.15408,-105.78817)">
    <path
       style="fill:#5ca8de;fill-opacity:1;fill-rule:evenodd;stroke:none"
       d="m 248.10156,132.94922 c -0.16797,-1.03125 -0.15234,-2.05078 0.0469,-3.05078 0.23437,-1.03125 0.66797,-2.01563 1.30078,-2.94922 0.63281,-0.89844 1.40234,-1.61719 2.30078,-2.14844 0.89844,-0.5664 1.85156,-0.93359 2.85156,-1.10156 l 31.09766,-5.5 6.90234,39 -39,6.85156 -5.5,-31.10156"
       id="path5"
       inkscape:connector-curvature="0" />
    <path
       style="fill:#0078b3;fill-opacity:1;fill-rule:evenodd;stroke:none"
       d="m 204.94922,172.64844 39,-6.84766 L 238.5,134.64844 c -0.19922,-1 -0.56641,-1.94922 -1.10156,-2.84766 -0.56641,-0.90234 -1.29688,-1.66797 -2.19922,-2.30078 -0.9336,-0.63281 -1.91406,-1.06641 -2.94922,-1.30078 -1,-0.19922 -2.01563,-0.21484 -3.05078,-0.0508 l -31.09766,5.5 6.84766,39"
       id="path7"
       inkscape:connector-curvature="0" />
    <path
       style="fill:#3f3f42;fill-opacity:1;fill-rule:evenodd;stroke:none"
       d="m 223.85156,109 -29.75,5.25 -6.75,11.30078 L 227.5,118.5 c 1.03516,-0.19922 1.98437,-0.56641 2.85156,-1.10156 0.89844,-0.56641 1.66406,-1.29688 2.29688,-2.19922 0.63672,-0.89844 1.0664,-1.86719 1.30078,-2.89844 0.19922,-1.03515 0.21875,-2.0664 0.0508,-3.10156 L 225.60156,61.300781 217.75,74.5 223.85156,109"
       id="path9"
       inkscape:connector-curvature="0" />
    <path
       style="fill:#6b6e70;fill-opacity:1;fill-rule:evenodd;stroke:none"
       d="m 243.64844,107.5 c 0.16797,1.03516 0.53515,2 1.10156,2.89844 0.53516,0.86719 1.25,1.63672 2.14844,2.30078 0.93359,0.63281 1.91797,1.05078 2.95312,1.25 1,0.23437 2.01563,0.25 3.04688,0.0508 L 284,108.55078 l -6.85156,-38.999999 -39,6.847657 5.5,31.101562"
       id="path11"
       inkscape:connector-curvature="0" />
  </g>
  <g
     id="surface4"
     transform="matrix(1.728,0,0,1.728,-259.15408,-108.78817)">
    <text
       style="font-size:48px;fill:#6d6f71;font-family:Kabel Bk BT"
       font-size="50"
       id="0"
       transform="translate(147.3925,226.0425)"
       xml:space="preserve">datacube</text>
  </g>
</svg>
